<svg width="160" height="24" viewBox="0 0 160 24" fill="none" xmlns="http://www.w3.org/2000/svg">
<path d="M0 23.9983H1.44203V0H0V23.9983ZM2.98033 23.9983H7.40239V0H2.98033V23.9983ZM8.84471 0V23.9974H13.2668V0H8.84471Z" fill="#990000"/>
<path d="M35.5775 24H37.0198V0H35.5775V24ZM38.5582 0V24H40.0002V0H38.5582ZM14.7539 24H16.1959V2.92969e-06H14.7539V24ZM17.7345 2.92969e-06V23.9991H19.1769V2.92969e-06H17.7345Z" fill="#339966"/>
<path d="M20.6672 24H25.0898V0H20.6672V24ZM26.5316 24H28.0696V0H26.5316V24ZM29.5119 0V23.9991H33.934V0H29.5119Z" fill="#006699"/>
<path d="M153.655 4L160 19.7965H156.172L154.995 16.6756H148.599L147.534 19.7965H143.757L149.52 4H153.655ZM153.941 13.9166L151.638 7.77668L149.54 13.9166H153.941ZM145.63 4V6.8947H140.452V19.7965H136.89V6.8947H131.711V4H145.63ZM127.208 4L133.553 19.7965H129.725L128.548 16.6756H122.152L121.087 19.7965H117.311L123.073 4H127.208ZM127.494 13.9166L125.191 7.77668L123.093 13.9166H127.494ZM103.146 4H109.45C111.886 4.00002 113.81 4.73877 115.223 6.21625C116.642 7.68623 117.352 9.58965 117.352 11.9265C117.352 14.3764 116.632 16.3025 115.192 17.7046C113.759 19.0992 111.712 19.7965 109.051 19.7965H103.146V4ZM106.707 6.8947V16.9018H109.031C110.539 16.9018 111.692 16.4457 112.49 15.5336C113.288 14.6139 113.687 13.404 113.687 11.9039C113.687 10.351 113.281 9.12981 112.47 8.24028C111.664 7.34324 110.504 6.89471 108.99 6.8947H106.707ZM99.85 4V19.7965H96.2882V4H99.85ZM93.1052 4L88.4483 11.4177L94.7632 19.7965H90.3008L84.641 12.3901V19.7965H81.0792V4H84.641V11.1124L89.1852 4H93.1052ZM77.7836 4V19.7965H74.2219V4H77.7836ZM60.2411 9.69894L55.8196 20H54.2844L48.0002 4H51.7768L55.1441 12.7293L58.8184 4H61.6842L65.3585 12.7293L68.7053 4H72.482L66.2182 20H64.683L60.2411 9.69894Z" fill="#54595D"/>
</svg>
