<svg width="17" height="16" viewBox="0 0 17 16" fill="none" xmlns="http://www.w3.org/2000/svg">
<path fill-rule="evenodd" clip-rule="evenodd" d="M8.6665 0C4.24823 0 0.666504 3.58172 0.666504 8C0.666504 12.4183 4.24823 16 8.6665 16C13.0848 16 16.6665 12.4183 16.6665 8C16.6665 3.58172 13.0848 0 8.6665 0ZM13.1945 11.392L12.0665 12.52L8.6665 9.128L5.2745 12.528L4.1385 11.392L7.5385 8L4.1385 4.608L5.2745 3.472L8.6665 6.872L12.0585 3.48L13.1865 4.608L9.7945 8L13.1945 11.392Z" fill="#54595D"/>
<mask id="mask0_173_9537" style="mask-type:luminance" maskUnits="userSpaceOnUse" x="0" y="0" width="17" height="16">
<path fill-rule="evenodd" clip-rule="evenodd" d="M8.6665 0C4.24823 0 0.666504 3.58172 0.666504 8C0.666504 12.4183 4.24823 16 8.6665 16C13.0848 16 16.6665 12.4183 16.6665 8C16.6665 3.58172 13.0848 0 8.6665 0ZM13.1945 11.392L12.0665 12.52L8.6665 9.128L5.2745 12.528L4.1385 11.392L7.5385 8L4.1385 4.608L5.2745 3.472L8.6665 6.872L12.0585 3.48L13.1865 4.608L9.7945 8L13.1945 11.392Z" fill="white"/>
</mask>
<g mask="url(#mask0_173_9537)">
</g>
</svg>
