<svg width="384" height="24" viewBox="0 0 384 24" fill="none" xmlns="http://www.w3.org/2000/svg">
<g clip-path="url(#clip0_3406_4471)">
<g clip-path="url(#clip1_3406_4471)">
<path d="M0 24.1983H1.44203V0.199951H0V24.1983ZM2.98033 24.1983H7.40239V0.199951H2.98033V24.1983ZM8.84471 0.199951V24.1974H13.2668V0.199951H8.84471Z" fill="#990000"/>
<path d="M35.5775 24.2H37.0198V0.199951H35.5775V24.2ZM38.5582 0.199951V24.2H40.0002V0.199951H38.5582ZM14.7539 24.2H16.1959V0.199954H14.7539V24.2ZM17.7345 0.199954V24.1991H19.1769V0.199954H17.7345Z" fill="#339966"/>
<path d="M20.6672 24.2H25.0898V0.199951H20.6672V24.2ZM26.5316 24.2H28.0696V0.199951H26.5316V24.2ZM29.5119 0.199951V24.1991H33.934V0.199951H29.5119Z" fill="#006699"/>
<path d="M153.655 4.19995L160 19.9965H156.172L154.995 16.8756H148.599L147.534 19.9965H143.757L149.52 4.19995H153.655ZM153.941 14.1166L151.638 7.97663L149.54 14.1166H153.941ZM145.63 4.19995V7.09465H140.452V19.9965H136.89V7.09465H131.711V4.19995H145.63ZM127.208 4.19995L133.553 19.9965H129.725L128.548 16.8756H122.152L121.087 19.9965H117.311L123.073 4.19995H127.208ZM127.494 14.1166L125.191 7.97663L123.093 14.1166H127.494ZM103.146 4.19995H109.45C111.886 4.19997 113.81 4.93872 115.223 6.4162C116.642 7.88618 117.352 9.7896 117.352 12.1265C117.352 14.5764 116.632 16.5025 115.192 17.9046C113.759 19.2992 111.712 19.9965 109.051 19.9965H103.146V4.19995ZM106.707 7.09465V17.1018H109.031C110.539 17.1018 111.692 16.6457 112.49 15.7336C113.288 14.8139 113.687 13.604 113.687 12.1039C113.687 10.551 113.281 9.32976 112.47 8.44023C111.664 7.54319 110.504 7.09466 108.99 7.09465H106.707ZM99.85 4.19995V19.9965H96.2882V4.19995H99.85ZM93.1052 4.19995L88.4483 11.6177L94.7632 19.9965H90.3008L84.641 12.5901V19.9965H81.0792V4.19995H84.641V11.3124L89.1852 4.19995H93.1052ZM77.7836 4.19995V19.9965H74.2219V4.19995H77.7836ZM60.2411 9.89889L55.8196 20.2H54.2844L48.0002 4.19995H51.7768L55.1441 12.9293L58.8184 4.19995H61.6842L65.3585 12.9293L68.7053 4.19995H72.482L66.2182 20.2H64.683L60.2411 9.89889Z" fill="#484848"/>
</g>
<path d="M166.068 20V4.6H168.422L175.154 15.842H173.922L180.544 4.6H182.898L182.92 20H180.214L180.192 8.846H180.764L175.132 18.24H173.856L168.136 8.846H168.796V20H166.068ZM187.08 20V4.6H189.94V20H187.08ZM198.879 20.22C197.676 20.22 196.525 20.0513 195.425 19.714C194.325 19.362 193.452 18.9147 192.807 18.372L193.797 16.15C194.413 16.634 195.176 17.0373 196.085 17.36C196.994 17.6827 197.926 17.844 198.879 17.844C199.686 17.844 200.338 17.756 200.837 17.58C201.336 17.404 201.702 17.1693 201.937 16.876C202.172 16.568 202.289 16.2233 202.289 15.842C202.289 15.3727 202.12 14.9987 201.783 14.72C201.446 14.4267 201.006 14.1993 200.463 14.038C199.935 13.862 199.341 13.7007 198.681 13.554C198.036 13.4073 197.383 13.2387 196.723 13.048C196.078 12.8427 195.484 12.586 194.941 12.278C194.413 11.9553 193.98 11.53 193.643 11.002C193.306 10.474 193.137 9.79933 193.137 8.978C193.137 8.142 193.357 7.37933 193.797 6.69C194.252 5.986 194.934 5.42867 195.843 5.018C196.767 4.59267 197.933 4.38 199.341 4.38C200.265 4.38 201.182 4.49733 202.091 4.732C203 4.96667 203.792 5.304 204.467 5.744L203.565 7.966C202.876 7.55533 202.164 7.25467 201.431 7.064C200.698 6.85867 199.994 6.756 199.319 6.756C198.527 6.756 197.882 6.85133 197.383 7.042C196.899 7.23267 196.54 7.482 196.305 7.79C196.085 8.098 195.975 8.45 195.975 8.846C195.975 9.31533 196.136 9.69667 196.459 9.99C196.796 10.2687 197.229 10.4887 197.757 10.65C198.3 10.8113 198.901 10.9727 199.561 11.134C200.221 11.2807 200.874 11.4493 201.519 11.64C202.179 11.8307 202.773 12.08 203.301 12.388C203.844 12.696 204.276 13.114 204.599 13.642C204.936 14.17 205.105 14.8373 205.105 15.644C205.105 16.4653 204.878 17.228 204.423 17.932C203.983 18.6213 203.301 19.1787 202.377 19.604C201.453 20.0147 200.287 20.22 198.879 20.22ZM207.941 20V4.6H210.295L217.027 15.842H215.795L222.417 4.6H224.771L224.793 20H222.087L222.065 8.846H222.637L217.005 18.24H215.729L210.009 8.846H210.669V20H207.941ZM226.775 20L233.705 4.6H236.521L243.473 20H240.481L234.519 6.118H235.663L229.723 20H226.775ZM229.965 16.436L230.735 14.192H239.051L239.821 16.436H229.965ZM247.782 20V7.02H242.678V4.6H255.746V7.02H250.642V20H247.782ZM264.805 20.22C263.632 20.22 262.539 20.0293 261.527 19.648C260.53 19.252 259.657 18.702 258.909 17.998C258.176 17.2793 257.604 16.436 257.193 15.468C256.783 14.5 256.577 13.444 256.577 12.3C256.577 11.156 256.783 10.1 257.193 9.132C257.604 8.164 258.183 7.328 258.931 6.624C259.679 5.90533 260.552 5.35533 261.549 4.974C262.547 4.578 263.639 4.38 264.827 4.38C266.089 4.38 267.24 4.6 268.281 5.04C269.323 5.46533 270.203 6.10333 270.921 6.954L269.073 8.692C268.516 8.09067 267.893 7.64333 267.203 7.35C266.514 7.042 265.766 6.888 264.959 6.888C264.153 6.888 263.412 7.02 262.737 7.284C262.077 7.548 261.498 7.922 260.999 8.406C260.515 8.89 260.134 9.462 259.855 10.122C259.591 10.782 259.459 11.508 259.459 12.3C259.459 13.092 259.591 13.818 259.855 14.478C260.134 15.138 260.515 15.71 260.999 16.194C261.498 16.678 262.077 17.052 262.737 17.316C263.412 17.58 264.153 17.712 264.959 17.712C265.766 17.712 266.514 17.5653 267.203 17.272C267.893 16.964 268.516 16.502 269.073 15.886L270.921 17.646C270.203 18.482 269.323 19.12 268.281 19.56C267.24 20 266.081 20.22 264.805 20.22ZM284.486 4.6H287.346V20H284.486V4.6ZM276.522 20H273.662V4.6H276.522V20ZM284.706 13.4H276.28V10.958H284.706V13.4ZM300.17 11.684H307.848V14.104H300.17V11.684ZM300.412 20H297.552V4.6H308.794V6.998H300.412V20ZM311.56 20V4.6H314.42V20H311.56ZM318.586 20V4.6H320.94L330.598 16.458H329.432V4.6H332.27V20H329.916L320.258 8.142H321.424V20H318.586ZM336.396 20V4.6H343.128C344.8 4.6 346.267 4.92267 347.528 5.568C348.789 6.21333 349.772 7.108 350.476 8.252C351.18 9.396 351.532 10.7453 351.532 12.3C351.532 13.84 351.18 15.1893 350.476 16.348C349.772 17.492 348.789 18.3867 347.528 19.032C346.267 19.6773 344.8 20 343.128 20H336.396ZM339.256 17.58H342.996C344.155 17.58 345.152 17.36 345.988 16.92C346.839 16.48 347.491 15.864 347.946 15.072C348.415 14.28 348.65 13.356 348.65 12.3C348.65 11.2293 348.415 10.3053 347.946 9.528C347.491 8.736 346.839 8.12 345.988 7.68C345.152 7.24 344.155 7.02 342.996 7.02H339.256V17.58ZM357.212 11.002H364.868V13.356H357.212V11.002ZM357.432 17.602H366.122V20H354.572V4.6H365.814V6.998H357.432V17.602ZM369.31 20V4.6H375.646C377.01 4.6 378.176 4.82 379.144 5.26C380.127 5.7 380.882 6.33067 381.41 7.152C381.938 7.97333 382.202 8.94867 382.202 10.078C382.202 11.2073 381.938 12.1827 381.41 13.004C380.882 13.8107 380.127 14.434 379.144 14.874C378.176 15.2993 377.01 15.512 375.646 15.512H370.894L372.17 14.214V20H369.31ZM379.386 20L375.492 14.412H378.55L382.466 20H379.386ZM372.17 14.522L370.894 13.158H375.514C376.776 13.158 377.722 12.8867 378.352 12.344C378.998 11.8013 379.32 11.046 379.32 10.078C379.32 9.09533 378.998 8.34 378.352 7.812C377.722 7.284 376.776 7.02 375.514 7.02H370.894L372.17 5.612V14.522Z" fill="#484848"/>
</g>
<defs>
<clipPath id="clip0_3406_4471">
<rect width="384" height="24" fill="white"/>
</clipPath>
<clipPath id="clip1_3406_4471">
<rect width="160" height="24" fill="white" transform="translate(0 0.199951)"/>
</clipPath>
</defs>
</svg>
