<svg width="268" height="24" viewBox="0 0 268 24" fill="none" xmlns="http://www.w3.org/2000/svg">
<g clip-path="url(#clip0_734_7024)">
<path d="M0 23.9983H1.44203V0H0V23.9983ZM2.98033 23.9983H7.40239V0H2.98033V23.9983ZM8.84471 0V23.9974H13.2668V0H8.84471Z" fill="#990000"/>
<path d="M35.5775 24H37.0198V0H35.5775V24ZM38.5582 0V24H40.0002V0H38.5582ZM14.7539 24H16.1959V2.92969e-06H14.7539V24ZM17.7345 2.92969e-06V23.9991H19.1769V2.92969e-06H17.7345Z" fill="#339966"/>
<path d="M20.667 24H25.0896V0H20.667V24ZM26.5314 24H28.0694V0H26.5314V24ZM29.5117 0V23.9991H33.9338V0H29.5117Z" fill="#006699"/>
</g>
<path d="M50.068 20V4.6H52.422L59.154 15.842H57.922L64.544 4.6H66.898L66.92 20H64.214L64.192 8.846H64.764L59.132 18.24H57.856L52.136 8.846H52.796V20H50.068ZM71.0797 20V4.6H73.9397V20H71.0797ZM82.8791 20.22C81.6764 20.22 80.5251 20.0513 79.4251 19.714C78.3251 19.362 77.4524 18.9147 76.8071 18.372L77.7971 16.15C78.4131 16.634 79.1758 17.0373 80.0851 17.36C80.9944 17.6827 81.9258 17.844 82.8791 17.844C83.6858 17.844 84.3384 17.756 84.8371 17.58C85.3358 17.404 85.7024 17.1693 85.9371 16.876C86.1718 16.568 86.2891 16.2233 86.2891 15.842C86.2891 15.3727 86.1204 14.9987 85.7831 14.72C85.4458 14.4267 85.0058 14.1993 84.4631 14.038C83.9351 13.862 83.3411 13.7007 82.6811 13.554C82.0358 13.4073 81.3831 13.2387 80.7231 13.048C80.0778 12.8427 79.4838 12.586 78.9411 12.278C78.4131 11.9553 77.9804 11.53 77.6431 11.002C77.3058 10.474 77.1371 9.79933 77.1371 8.978C77.1371 8.142 77.3571 7.37933 77.7971 6.69C78.2518 5.986 78.9338 5.42867 79.8431 5.018C80.7671 4.59267 81.9331 4.38 83.3411 4.38C84.2651 4.38 85.1818 4.49733 86.0911 4.732C87.0004 4.96667 87.7924 5.304 88.4671 5.744L87.5651 7.966C86.8758 7.55533 86.1644 7.25467 85.4311 7.064C84.6978 6.85867 83.9938 6.756 83.3191 6.756C82.5271 6.756 81.8818 6.85133 81.3831 7.042C80.8991 7.23267 80.5398 7.482 80.3051 7.79C80.0851 8.098 79.9751 8.45 79.9751 8.846C79.9751 9.31533 80.1364 9.69667 80.4591 9.99C80.7964 10.2687 81.2291 10.4887 81.7571 10.65C82.2998 10.8113 82.9011 10.9727 83.5611 11.134C84.2211 11.2807 84.8738 11.4493 85.5191 11.64C86.1791 11.8307 86.7731 12.08 87.3011 12.388C87.8438 12.696 88.2764 13.114 88.5991 13.642C88.9364 14.17 89.1051 14.8373 89.1051 15.644C89.1051 16.4653 88.8778 17.228 88.4231 17.932C87.9831 18.6213 87.3011 19.1787 86.3771 19.604C85.4531 20.0147 84.2871 20.22 82.8791 20.22ZM91.941 20V4.6H94.295L101.027 15.842H99.795L106.417 4.6H108.771L108.793 20H106.087L106.065 8.846H106.637L101.005 18.24H99.729L94.009 8.846H94.669V20H91.941ZM110.775 20L117.705 4.6H120.521L127.473 20H124.481L118.519 6.118H119.663L113.723 20H110.775ZM113.965 16.436L114.735 14.192H123.051L123.821 16.436H113.965ZM131.782 20V7.02H126.678V4.6H139.746V7.02H134.642V20H131.782ZM148.805 20.22C147.632 20.22 146.539 20.0293 145.527 19.648C144.53 19.252 143.657 18.702 142.909 17.998C142.176 17.2793 141.604 16.436 141.193 15.468C140.783 14.5 140.577 13.444 140.577 12.3C140.577 11.156 140.783 10.1 141.193 9.132C141.604 8.164 142.183 7.328 142.931 6.624C143.679 5.90533 144.552 5.35533 145.549 4.974C146.547 4.578 147.639 4.38 148.827 4.38C150.089 4.38 151.24 4.6 152.281 5.04C153.323 5.46533 154.203 6.10333 154.921 6.954L153.073 8.692C152.516 8.09067 151.893 7.64333 151.203 7.35C150.514 7.042 149.766 6.888 148.959 6.888C148.153 6.888 147.412 7.02 146.737 7.284C146.077 7.548 145.498 7.922 144.999 8.406C144.515 8.89 144.134 9.462 143.855 10.122C143.591 10.782 143.459 11.508 143.459 12.3C143.459 13.092 143.591 13.818 143.855 14.478C144.134 15.138 144.515 15.71 144.999 16.194C145.498 16.678 146.077 17.052 146.737 17.316C147.412 17.58 148.153 17.712 148.959 17.712C149.766 17.712 150.514 17.5653 151.203 17.272C151.893 16.964 152.516 16.502 153.073 15.886L154.921 17.646C154.203 18.482 153.323 19.12 152.281 19.56C151.24 20 150.081 20.22 148.805 20.22ZM168.486 4.6H171.346V20H168.486V4.6ZM160.522 20H157.662V4.6H160.522V20ZM168.706 13.4H160.28V10.958H168.706V13.4ZM184.17 11.684H191.848V14.104H184.17V11.684ZM184.412 20H181.552V4.6H192.794V6.998H184.412V20ZM195.56 20V4.6H198.42V20H195.56ZM202.586 20V4.6H204.94L214.598 16.458H213.432V4.6H216.27V20H213.916L204.258 8.142H205.424V20H202.586ZM220.396 20V4.6H227.128C228.8 4.6 230.267 4.92267 231.528 5.568C232.789 6.21333 233.772 7.108 234.476 8.252C235.18 9.396 235.532 10.7453 235.532 12.3C235.532 13.84 235.18 15.1893 234.476 16.348C233.772 17.492 232.789 18.3867 231.528 19.032C230.267 19.6773 228.8 20 227.128 20H220.396ZM223.256 17.58H226.996C228.155 17.58 229.152 17.36 229.988 16.92C230.839 16.48 231.491 15.864 231.946 15.072C232.415 14.28 232.65 13.356 232.65 12.3C232.65 11.2293 232.415 10.3053 231.946 9.528C231.491 8.736 230.839 8.12 229.988 7.68C229.152 7.24 228.155 7.02 226.996 7.02H223.256V17.58ZM241.212 11.002H248.868V13.356H241.212V11.002ZM241.432 17.602H250.122V20H238.572V4.6H249.814V6.998H241.432V17.602ZM253.31 20V4.6H259.646C261.01 4.6 262.176 4.82 263.144 5.26C264.127 5.7 264.882 6.33067 265.41 7.152C265.938 7.97333 266.202 8.94867 266.202 10.078C266.202 11.2073 265.938 12.1827 265.41 13.004C264.882 13.8107 264.127 14.434 263.144 14.874C262.176 15.2993 261.01 15.512 259.646 15.512H254.894L256.17 14.214V20H253.31ZM263.386 20L259.492 14.412H262.55L266.466 20H263.386ZM256.17 14.522L254.894 13.158H259.514C260.776 13.158 261.722 12.8867 262.352 12.344C262.998 11.8013 263.32 11.046 263.32 10.078C263.32 9.09533 262.998 8.34 262.352 7.812C261.722 7.284 260.776 7.02 259.514 7.02H254.894L256.17 5.612V14.522Z" fill="#484848"/>
<defs>
<clipPath id="clip0_734_7024">
<rect width="40" height="24" fill="white"/>
</clipPath>
</defs>
</svg>
